<?xml version="1.0" encoding="UTF-8" standalone="no"?>
<svg
   xmlns:dc="http://purl.org/dc/elements/1.1/"
   xmlns:cc="http://creativecommons.org/ns#"
   xmlns:rdf="http://www.w3.org/1999/02/22-rdf-syntax-ns#"
   xmlns:svg="http://www.w3.org/2000/svg"
   xmlns="http://www.w3.org/2000/svg"
   xmlns:sodipodi="http://sodipodi.sourceforge.net/DTD/sodipodi-0.dtd"
   xmlns:inkscape="http://www.inkscape.org/namespaces/inkscape"
   viewBox="0 0 16 16"
   version="1.1"
   id="svg10"
   sodipodi:docname="Delegate.svg"
   inkscape:version="0.92.4 (5da689c313, 2019-01-14)">
  <metadata
     id="metadata16">
    <rdf:RDF>
      <cc:Work
         rdf:about="">
        <dc:format>image/svg+xml</dc:format>
        <dc:type
           rdf:resource="http://purl.org/dc/dcmitype/StillImage" />
      </cc:Work>
    </rdf:RDF>
  </metadata>
  <defs
     id="defs14" />
  <sodipodi:namedview
     pagecolor="#ffffff"
     bordercolor="#666666"
     borderopacity="1"
     objecttolerance="10"
     gridtolerance="10"
     guidetolerance="10"
     inkscape:pageopacity="0"
     inkscape:pageshadow="2"
     inkscape:window-width="702"
     inkscape:window-height="480"
     id="namedview12"
     showgrid="false"
     inkscape:zoom="14.75"
     inkscape:cx="7.6194642"
     inkscape:cy="8"
     inkscape:window-x="0"
     inkscape:window-y="0"
     inkscape:window-maximized="0"
     inkscape:current-layer="svg10" />
  <style
     id="style2">.icon-canvas-transparent{opacity:0;fill:#f6f6f6}.icon-vs-out{fill:#f6f6f6}.icon-vs-fg{fill:#f0eff1}.icon-vs-action-purple{fill:#652d90}</style>
  <path
     class="icon-canvas-transparent"
     d="M 14.8,14.8 H 1.2 V 1.2 h 13.6 z"
     id="canvas"
     inkscape:connector-curvature="0"
     style="opacity:0;fill:#f6f6f6;stroke-width:0.85000002" />
  <path
     class="icon-vs-out"
     d="M 3.5375,14.8 A 2.3392,2.3392 0 0 1 1.2,12.4625 V 6.0875 A 2.3392,2.3392 0 0 1 3.5375,3.75 H 4.6 V 3.1125 A 1.9142,1.9142 0 0 1 6.5125,1.2 h 2.975 C 10.5415,1.2 11.4,2.05765 11.4,3.1125 V 3.75 h 1.0625 A 2.3392,2.3392 0 0 1 14.8,6.0875 v 6.375 A 2.3392,2.3392 0 0 1 12.4625,14.8 Z"
     id="outline"
     inkscape:connector-curvature="0"
     style="fill:#f6f6f6;stroke-width:0.85000002" />
  <path
     class="icon-vs-action-purple"
     d="M 12.4625,4.6 H 10.55 V 3.1125 C 10.55,2.526 10.074,2.05 9.4875,2.05 H 6.5125 C 5.926,2.05 5.45,2.526 5.45,3.1125 V 4.6 H 3.5375 C 2.71725,4.6 2.05,5.26725 2.05,6.0875 v 6.375 c 0,0.82025 0.66725,1.4875 1.4875,1.4875 h 8.925 c 0.82025,0 1.4875,-0.66725 1.4875,-1.4875 V 6.0875 C 13.95,5.26725 13.28275,4.6 12.4625,4.6 Z M 4.6,12.25 H 3.75 V 6.3 H 4.6 Z M 9.7,4.6 H 6.3 V 3.1125 A 0.2125,0.2125 0 0 1 6.5125,2.9 h 2.975 A 0.2125,0.2125 0 0 1 9.7,3.1125 Z m 2.55,7.65 H 11.4 V 6.3 h 0.85 z"
     id="iconBg"
     inkscape:connector-curvature="0"
     style="fill:#652d90;stroke-width:0.85000002" />
  <g
     id="iconFg"
     transform="matrix(0.85,0,0,0.85,1.2,1.425)">
    <path
       class="icon-vs-fg"
       d="M 4,13 H 3 V 6 h 1 z m 9,0 H 12 V 6 h 1 z"
       id="path7"
       inkscape:connector-curvature="0"
       style="fill:#f0eff1" />
  </g>
</svg>
