<?xml version="1.0" encoding="UTF-8" standalone="no"?>
<svg
   xmlns:dc="http://purl.org/dc/elements/1.1/"
   xmlns:cc="http://creativecommons.org/ns#"
   xmlns:rdf="http://www.w3.org/1999/02/22-rdf-syntax-ns#"
   xmlns:svg="http://www.w3.org/2000/svg"
   xmlns="http://www.w3.org/2000/svg"
   xmlns:sodipodi="http://sodipodi.sourceforge.net/DTD/sodipodi-0.dtd"
   xmlns:inkscape="http://www.inkscape.org/namespaces/inkscape"
   viewBox="0 0 16 16"
   version="1.1"
   id="svg11"
   sodipodi:docname="OverlayProtected.svg"
   inkscape:version="0.92.4 (5da689c313, 2019-01-14)">
  <metadata
     id="metadata17">
    <rdf:RDF>
      <cc:Work
         rdf:about="">
        <dc:format>image/svg+xml</dc:format>
        <dc:type
           rdf:resource="http://purl.org/dc/dcmitype/StillImage" />
      </cc:Work>
    </rdf:RDF>
  </metadata>
  <defs
     id="defs15" />
  <sodipodi:namedview
     pagecolor="#ffffff"
     bordercolor="#666666"
     borderopacity="1"
     objecttolerance="10"
     gridtolerance="10"
     guidetolerance="10"
     inkscape:pageopacity="0"
     inkscape:pageshadow="2"
     inkscape:window-width="640"
     inkscape:window-height="480"
     id="namedview13"
     showgrid="false"
     inkscape:snap-global="true"
     inkscape:zoom="14.75"
     inkscape:cx="8"
     inkscape:cy="8"
     inkscape:current-layer="svg11" />
  <style
     id="style2">.st0{opacity:0}.st0,.st1{fill:#f6f6f6}.st2{fill:#c27d1a}.st3{fill:#424242}</style>
  <g
     id="outline"
     transform="matrix(1.2,0,0,1.2,-10.740369,-10.713749)">
    <path
       class="st0"
       d="M 0,0 H 16 V 16 H 0 Z"
       id="path4"
       inkscape:connector-curvature="0"
       style="opacity:0;fill:#f6f6f6" />
    <path
       class="st1"
       d="M 6.414,4 9,1.414 V 0 H 3.382 L 0,6.764 V 8 h 2.382 l -2,4 H 2.914 L 9.5,5.414 V 4 Z M 14.607,13.545 16,12.5 V 11 h -2.156 l -0.6,-2 h -1.488 l -0.6,2 H 9 v 1.5 L 10.393,13.545 9.656,16 h 1.677 L 12.5,15.125 13.667,16 h 1.677 z"
       id="path6"
       inkscape:connector-curvature="0"
       style="fill:#f6f6f6" />
  </g>
  <path
     class="st2"
     d="m -5.0331559,-4.1491525 4.79999997,-4.8 H -5.0331559 l -3.6,7.2 h 3.6216 l -2.4216,4.8 h 0.6216 l 7.19999997,-7.2 z"
     id="color_x5F_importance"
     inkscape:connector-curvature="0"
     style="fill:#c27d1a;stroke-width:1.20000005" />
  <path
     class="st3"
     d="m 5.3676135,5.024414 1.8612,-1.3956 H 4.9488136 l -0.72,-2.4 -0.72,2.4 h -2.28 l 1.8612,1.3956 -0.6612,2.2044 1.8,-1.35 1.7999999,1.35 z"
     id="not_x5F_bg"
     inkscape:connector-curvature="0"
     style="fill:#424242;stroke-width:1.20000005" />
</svg>
