<?xml version="1.0" encoding="UTF-8" standalone="no"?>
<svg
   xmlns:dc="http://purl.org/dc/elements/1.1/"
   xmlns:cc="http://creativecommons.org/ns#"
   xmlns:rdf="http://www.w3.org/1999/02/22-rdf-syntax-ns#"
   xmlns:svg="http://www.w3.org/2000/svg"
   xmlns="http://www.w3.org/2000/svg"
   xmlns:sodipodi="http://sodipodi.sourceforge.net/DTD/sodipodi-0.dtd"
   xmlns:inkscape="http://www.inkscape.org/namespaces/inkscape"
   viewBox="0 0 16 16"
   version="1.1"
   id="svg11"
   sodipodi:docname="OverlayInternal.svg"
   inkscape:version="0.92.4 (5da689c313, 2019-01-14)">
  <metadata
     id="metadata17">
    <rdf:RDF>
      <cc:Work
         rdf:about="">
        <dc:format>image/svg+xml</dc:format>
        <dc:type
           rdf:resource="http://purl.org/dc/dcmitype/StillImage" />
      </cc:Work>
    </rdf:RDF>
  </metadata>
  <defs
     id="defs15" />
  <sodipodi:namedview
     pagecolor="#ffffff"
     bordercolor="#666666"
     borderopacity="1"
     objecttolerance="10"
     gridtolerance="10"
     guidetolerance="10"
     inkscape:pageopacity="0"
     inkscape:pageshadow="2"
     inkscape:window-width="702"
     inkscape:window-height="480"
     id="namedview13"
     showgrid="false"
     inkscape:zoom="14.75"
     inkscape:cx="7.6194642"
     inkscape:cy="8"
     inkscape:window-x="659"
     inkscape:window-y="276"
     inkscape:window-maximized="0"
     inkscape:current-layer="svg11" />
  <style
     id="style2">.st0{opacity:0}.st0,.st1{fill:#f6f6f6}.st2{fill:#c27d1a}.st3{fill:#424242}</style>
  <g
     id="outline"
     transform="translate(-8.8813559,-8.9491525)">
    <path
       class="st0"
       d="M 0,0 H 16 V 16 H 0 Z"
       id="path4"
       inkscape:connector-curvature="0"
       style="opacity:0;fill:#f6f6f6" />
    <path
       class="st1"
       d="M 9.5,4 H 6.414 L 9,1.414 V 0 H 3.382 L 0,6.764 V 8 h 2.382 l -2,4 H 2.914 L 9.5,5.414 Z m 4.071,5 C 13.295,9 12.894,9.055 12.5,9.305 A 1.996,1.996 0 0 0 11.429,9 C 10.112,9 9,10.137 9,11.482 c 0,0.594 0.196,1.188 0.561,1.656 0.293,0.355 2.246,2.529 2.246,2.529 L 12.104,16 h 0.909 l 0.3,-0.352 c 0,0 1.836,-2.159 2.148,-2.535 0.343,-0.442 0.54,-1.037 0.54,-1.631 C 16,10.137 14.888,9 13.571,9 Z"
       id="path6"
       inkscape:connector-curvature="0"
       style="fill:#f6f6f6" />
  </g>
  <path
     class="st2"
     d="m -4.8813559,-3.9491525 3.99999997,-4 H -4.8813559 l -3,6 h 3.018 l -2.018,4 h 0.518 l 5.99999997,-6 z"
     id="color_x5F_importance"
     inkscape:connector-curvature="0"
     style="fill:#c27d1a" />
  <path
     class="st3"
     d="m 4.6896441,1.0508475 c -0.527,0 -0.86,0.747 -1.071,1.25 -0.211,-0.503 -0.545,-1.25 -1.071,-1.25 -0.728,0 -1.429,0.664 -1.429,1.482 0,0.375 0.127,0.756 0.329,1.018 0.29,0.35 2.222,2.5 2.222,2.5 0,0 1.829,-2.15 2.119,-2.5 0.203,-0.262 0.33,-0.643 0.33,-1.018 0,-0.818 -0.7,-1.482 -1.429,-1.482 z"
     id="not_x5F_bg"
     inkscape:connector-curvature="0"
     style="fill:#424242" />
</svg>
