<?xml version="1.0" encoding="UTF-8" standalone="no"?>
<svg
   xmlns:dc="http://purl.org/dc/elements/1.1/"
   xmlns:cc="http://creativecommons.org/ns#"
   xmlns:rdf="http://www.w3.org/1999/02/22-rdf-syntax-ns#"
   xmlns:svg="http://www.w3.org/2000/svg"
   xmlns="http://www.w3.org/2000/svg"
   xmlns:sodipodi="http://sodipodi.sourceforge.net/DTD/sodipodi-0.dtd"
   xmlns:inkscape="http://www.inkscape.org/namespaces/inkscape"
   viewBox="0 0 16 16"
   version="1.1"
   id="svg14"
   sodipodi:docname="OverlayPrivate.svg"
   inkscape:version="0.92.4 (5da689c313, 2019-01-14)">
  <metadata
     id="metadata20">
    <rdf:RDF>
      <cc:Work
         rdf:about="">
        <dc:format>image/svg+xml</dc:format>
        <dc:type
           rdf:resource="http://purl.org/dc/dcmitype/StillImage" />
      </cc:Work>
    </rdf:RDF>
  </metadata>
  <defs
     id="defs18" />
  <sodipodi:namedview
     pagecolor="#ffffff"
     bordercolor="#666666"
     borderopacity="1"
     objecttolerance="10"
     gridtolerance="10"
     guidetolerance="10"
     inkscape:pageopacity="0"
     inkscape:pageshadow="2"
     inkscape:window-width="702"
     inkscape:window-height="480"
     id="namedview16"
     showgrid="false"
     inkscape:zoom="14.75"
     inkscape:cx="7.6194642"
     inkscape:cy="8"
     inkscape:window-x="592"
     inkscape:window-y="265"
     inkscape:window-maximized="0"
     inkscape:current-layer="svg14" />
  <style
     id="style2">.st0{fill:#f6f6f6}.st1{fill:#f0eff1}.st2{fill:#c27d1a}.st3{fill:#424242}</style>
  <g
     id="outline"
     transform="translate(-8.9491525,-8)">
    <path
       class="st0"
       d="M 6.414,4 9,1.414 V 0 H 3.382 L 0,6.764 V 8 h 2.382 l -2,4 H 2.914 L 9.5,5.414 V 4 Z M 9,16 9.005,12.016 c 0,0 -0.225,-3.984 3.589,-3.984 1.532,0 3.406,0.967 3.406,3.976 V 16 Z"
       id="path4"
       inkscape:connector-curvature="0"
       style="fill:#f6f6f6" />
    <path
       class="st1"
       d="m 13,14 h -1 v -0.959 h 1 z"
       id="path6"
       inkscape:connector-curvature="0"
       style="fill:#f0eff1" />
  </g>
  <path
     class="st2"
     d="m -4.9491525,-3 3.99999996,-4 H -4.9491525 l -3,6 h 3.018 l -2.018,4 h 0.518 l 5.99999996,-6 z"
     id="color_x5F_importance"
     inkscape:connector-curvature="0"
     style="fill:#c27d1a" />
  <g
     id="not_x5F_bg"
     transform="translate(-8.9491525,-8)">
    <path
       class="st3"
       d="m 11.019,11.563 c 0.059,-0.729 0.334,-1.541 1.575,-1.541 1.249,0 1.391,0.795 1.404,1.541 h 0.966 c -0.085,-1.119 -0.144,-2.531 -2.37,-2.531 -2.396,0 -2.445,1.406 -2.576,2.531 z M 14,12 h -4 v 3 h 5 v -3 z m -1,2 h -1 v -1 h 1 z"
       id="path10"
       inkscape:connector-curvature="0"
       style="fill:#424242" />
  </g>
  <path
     class="st1"
     d="m 3.0508475,5 h 1 v 1 h -1 z"
     id="not_x5F_fg"
     inkscape:connector-curvature="0"
     style="fill:#f0eff1" />
</svg>
